<svg xmlns="http://www.w3.org/2000/svg" viewBox="0 0 512 512" fill="none">
  <title>VERAQIS</title>
  <defs>
    <linearGradient id="veraqis-bg" x1="80" y1="32" x2="432" y2="480" gradientUnits="userSpaceOnUse">
      <stop stop-color="#9F7AEA"/>
      <stop offset="0.52" stop-color="#7C3AED"/>
      <stop offset="1" stop-color="#5B21B6"/>
    </linearGradient>
  </defs>
  <rect width="512" height="512" rx="120" fill="url(#veraqis-bg)"/>
  <g data-brand-mark="veraqis-v1" transform="translate(64 74) scale(16)" stroke="#FFFFFF" stroke-width="1.4" stroke-linecap="round" stroke-linejoin="round">
    <path d="M12 2c1.5 2.5 1 5-1 6.5 3-1 5.5.5 6.5 3-1-.5-2.5-.3-3.5.5 2 1 3 3.5 2.5 6-1.3-2-3.5-3-6-2.8"/>
    <path d="M12 2c-1.5 2.5-1 5 1 6.5-3-1-5.5.5-6.5 3 1-.5 2.5-.3 3.5.5-2 1-3 3.5-2.5 6 1.3-2 3.5-3 6-2.8"/>
    <path d="M12 12v9M9 21h6"/>
  </g>
</svg>
