<svg xmlns="http://www.w3.org/2000/svg" width="1200" height="630" viewBox="0 0 1200 630" fill="none">
  <defs>
    <linearGradient id="bg" x1="0" y1="0" x2="1" y2="1">
      <stop offset="0" stop-color="#171029"/>
      <stop offset="1" stop-color="#0c0a15"/>
    </linearGradient>
    <radialGradient id="glow" cx="78%" cy="22%" r="55%">
      <stop offset="0" stop-color="#8b5cf6" stop-opacity="0.22"/>
      <stop offset="1" stop-color="#8b5cf6" stop-opacity="0"/>
    </radialGradient>
    <linearGradient id="amber" x1="0" y1="0" x2="1" y2="0">
      <stop offset="0" stop-color="#a78bfa"/>
      <stop offset="1" stop-color="#c084fc"/>
    </linearGradient>
  </defs>
  <rect width="1200" height="630" fill="url(#bg)"/>
  <rect width="1200" height="630" fill="url(#glow)"/>
  <g transform="translate(96,150)">
    <g data-brand-mark="veraqis-v1" transform="scale(4.6)" fill="none" stroke="#a78bfa" stroke-width="1.4" stroke-linecap="round" stroke-linejoin="round">
      <path d="M12 2c1.5 2.5 1 5-1 6.5 3-1 5.5.5 6.5 3-1-.5-2.5-.3-3.5.5 2 1 3 3.5 2.5 6-1.3-2-3.5-3-6-2.8"/>
      <path d="M12 2c-1.5 2.5-1 5 1 6.5-3-1-5.5.5-6.5 3 1-.5 2.5-.3 3.5.5-2 1-3 3.5-2.5 6 1.3-2 3.5-3 6-2.8"/>
      <path d="M12 12v9M9 21h6"/>
    </g>
  </g>
  <text x="300" y="220" font-family="system-ui,Segoe UI,Arial" font-size="76" font-weight="750" letter-spacing="2" fill="#ede9fe">VERAQIS</text>
  <text x="302" y="300" font-family="system-ui,Segoe UI,Arial" font-size="40" font-weight="600" fill="url(#amber)">Proof-first safety tools</text>
  <text x="302" y="372" font-family="system-ui,Segoe UI,Arial" font-size="30" fill="#a9a3c2">Check before you open. Recover only what can be proven.</text>
  <text x="90" y="560" font-family="ui-monospace,Consolas,monospace" font-size="26" fill="#4ade80">false_recovered_bytes = 0</text>
  <text x="90" y="600" font-family="ui-monospace,Consolas,monospace" font-size="22" fill="#8b84a3">offline-first - no telemetry - proof-first - beta</text>
</svg>
